<?xml version="1.0" encoding="utf-8"?>
<!-- Generator: Adobe Illustrator 19.0.0, SVG Export Plug-In . SVG Version: 6.00 Build 0)  -->
<svg version="1.1" id="Layer_1" xmlns="http://www.w3.org/2000/svg" xmlns:xlink="http://www.w3.org/1999/xlink" x="0px" y="0px"
	 viewBox="0 0 52 52" style="enable-background:new 0 0 52 52;" xml:space="preserve">
<style type="text/css">
	.st0{fill:#FFFFFF;}
</style>
<path id="Fill-7" class="st0" d="M16.3,8.6c-2.2,0-4,1.8-4,4s1.8,4,4,4s4-1.8,4-4S18.5,8.6,16.3,8.6 M16.3,18.6c-3.3,0-6-2.7-6-6
	s2.7-6,6-6s6,2.7,6,6S19.6,18.6,16.3,18.6"/>
<path id="Fill-27" class="st0" d="M46.9,23.4l-2.2,0.4l-3.2-4.5h-1c0.7-1.2,1-2.7,1-4.1c0-4.9-4-8.9-8.9-8.9s-8.9,4-8.9,8.8
	c0,4.1,2.8,7.5,6.5,8.6L30,23.8l-1.3,0.6l-2.1-0.8l-2.1-1.2l-2.9,3.6l-2.3-1.3L15,26l-2.2-7.3H7.3l-4,7l-1.2,0
	C2.2,12.6,12.9,2.1,26,2.1c13.2,0,23.9,10.7,23.9,23.9v0.8L46.9,23.4z M34.8,39.1c-0.4,0.3-1.7,0.7-4,0.7s-3.6-0.4-4-0.7
	c0.1-1.5,1.9-2.7,4-2.7S34.7,37.6,34.8,39.1L34.8,39.1z M40.9,30.2c2.1,0,3.8,1.2,4,2.7c-0.4,0.3-1.7,0.7-4,0.7
	c-2.2,0-3.6-0.4-4-0.7C37,31.4,38.8,30.2,40.9,30.2L40.9,30.2z M39.8,27.7c-0.4,0.3-1.7,0.7-4,0.7c-2.2,0-3.6-0.4-4-0.7
	c0.1-1.5,1.9-2.7,4-2.7C38,25,39.7,26.2,39.8,27.7L39.8,27.7z M38.2,18.9l-1.6-2.1l-4.8,5.2c-3.4-0.4-6.1-3.2-6.1-6.8
	c0-3.7,3-6.8,6.8-6.8s6.8,3,6.8,6.8C39.4,16.5,38.9,17.8,38.2,18.9L38.2,18.9z M37.1,47.2c-1.9-1-4.9-1.5-8-2.2
	c-1.1-0.2-2.2-0.4-3.3-0.7c-1-0.2-2-0.4-2.9-0.6c-1.4-0.3-3.1-0.6-3.6-0.9c0.2-0.3,0.8-1,2.8-2.3c0.7-0.5,2.9-2,2.3-3.9
	c-0.5-1.8-3.4-2.9-9.2-3.5c-0.5-0.1-1.1-0.1-1.6-0.2c-0.3-0.9-0.7-2.1-1.3-3.8l-1-2.9l-1,2.9c-0.3,1-0.6,1.7-0.8,2.4
	c-0.3-0.8-0.7-2.2-1.5-4.5L7,24l-1,2.9c-1.4,4-1.7,5.1-1.8,5.6H3c-0.4-1.5-0.7-3.1-0.8-4.7l2.4-0.1l4-6.9h2.7l2.4,7.8l5.6-1.4
	l1.3,0.7l-2.7,3.4l1.6,1.3l5.8-7.3l0.7,0.4l3.1,1.1l1.4-0.7c-0.3,0.5-0.4,1.1-0.4,1.8s0.4,2,3.4,2.4c0.9,0.2,1.6,1,1.6,1.9v3.4
	c-0.4-0.3-0.9-0.5-1.4-0.7h0c-1.1-0.4-2.2-0.9-2.5-2c-0.3,0.9-1,1.4-1.9,1.8c-2.4,0.7-4.2,2.5-4.2,4.6c0,0.8,0.6,2.6,6,2.6
	c5.5,0,6-1.8,6-2.6v-4.1c0.4,0.1,0.8,0.2,1.3,0.3c0.9,0.2,1.6,1,1.6,1.9v2.3c0,0.5,0.4,1,0.9,1.1c0.6,0.1,1.1-0.4,1.1-1v-2.4
	c0-1,0.7-1.8,1.6-1.9c3-0.5,3.4-1.8,3.4-2.4c0-1.7-1.1-3.2-2.8-4.1h0c0,0-0.1,0-0.1,0c-0.3-0.2-0.6-0.3-0.9-0.4
	c-0.5-0.2-0.9-0.5-1.2-0.9c-0.1-1.8-1.5-3.4-3.5-4.2h0c-0.1-0.1-0.3-0.1-0.4-0.1c-1-0.4-1.8-0.9-2.1-1.9c-0.3,1.1-1.2,1.6-2.4,2
	c-0.1,0-0.2,0.1-0.3,0.1l3.2-3.5l2,2.6l1.6-1.2h0.4l3.4,4.7l2.4-0.4l3.5,4C48.5,37.2,43.7,43.7,37.1,47.2L37.1,47.2z M10.6,34.7
	c0.2-0.5,0.4-1.2,0.7-2.1c0.3,0.9,0.5,1.6,0.7,2.1c-0.2,0.1-0.4,0.1-0.7,0.1C11.1,34.8,10.8,34.8,10.6,34.7L10.6,34.7z M6.3,32.5
	c0.2-0.5,0.4-1.2,0.7-2c0.3,0.8,0.5,1.6,0.7,2.1C7.2,32.6,6.8,32.5,6.3,32.5L6.3,32.5z M26,49.9c-10.2,0-18.9-6.4-22.3-15.3
	c0.7,0,1.4,0,2.1,0c0.4,0.1,0.8,0.2,1.2,0.2c0.3,0,0.7,0,1-0.1c0.2,0,0.3,0,0.5,0c-0.1,0.2-0.1,0.2-0.1,0.3c0,1.1,1.2,2,2.9,2
	c1.6,0,2.8-0.8,2.9-1.9c0.3,0,0.5,0.1,0.8,0.1c6.9,0.8,7.4,2,7.4,2.1c0,0.1-0.1,0.7-1.5,1.6c-2.9,2-4,3.2-3.7,4.5
	c0.3,1.5,2.3,1.9,5.4,2.5c0.9,0.2,1.8,0.3,2.8,0.6c1.1,0.2,2.3,0.5,3.4,0.7c2,0.4,4.1,0.8,5.8,1.3C31.9,49.4,29,49.9,26,49.9
	L26,49.9z M26,0C11.7,0,0,11.7,0,26s11.7,26,26,26s26-11.7,26-26S40.3,0,26,0L26,0z"/>
</svg>
