mtllib materials.mtl
v 0.09630476 -0.1349574 -0.1128876
v 0.2063048 -0.1205673 -0.04727757
v 0.2263048 -0.1105673 -0.1884975
v -0.1436952 -0.1449574 -0.2028877
v -0.2136952 0.02794254 -0.1957875
v -0.2136952 -0.1178575 -0.1957875
v 0.1563048 -0.1349574 -0.2128876
v -0.08369525 -0.1349574 -0.1128876
v 0.1463048 0.05504262 -0.2228876
v 0.09630476 0.04504263 -0.1128876
v 0.07191478 0.06504261 -0.1884975
v 0.07191475 0.02065265 -0.2328877
v 0.07191475 -0.1105675 -0.2328877
v -0.08369525 0.04504263 -0.1128876
v -0.2136952 0.02794254 -0.04998755
v -0.2136952 -0.1178575 -0.04998755
v -0.2836952 0.002872109 -0.1707171
v -0.2836952 -0.09278727 -0.1707171
v -0.04930526 0.02065265 -0.2328876
v -0.04930526 -0.1105675 -0.2328876
v 0.2063048 0.01065266 -0.04727757
v 0.2263048 0.02065265 -0.1884975
v 0.2863048 -0.09278703 -0.07505786
v 0.2863047 -0.09278703 -0.1707172
v -0.05930522 0.07504261 -0.08727753
v 0.07191478 0.07504261 -0.08727741
v -0.1536952 0.04504263 -0.2128876
v -0.05930522 0.06504261 -0.1884975
v 0.05413447 0.1050426 -0.1050577
v 0.05413447 0.07504261 -0.1707171
v -0.03674194 0.115604 -0.02161658
v 0.0493515 0.115604 -0.02161658
v -0.04152489 0.07504261 -0.1707171
v -0.04152489 0.1050426 -0.1050578
v -0.02507627 0.1321651 -0.02328229
v 0.03768586 0.1321651 -0.02328229
v -0.02507614 0.1328844 0.1276511
v 0.03768598 0.1328844 0.1276511
v -0.01657185 0.1449573 0.1264367
v 0.02918172 0.1449573 0.1264367
v 0.2495462 0.002872467 0.01879847
v 0.2495462 -0.09278691 0.01879847
v 0.2863047 0.002872467 -0.1707172
v 0.2863048 0.002872467 -0.07505786
v -0.2836952 0.002872109 -0.07505774
v -0.2398055 -0.07982504 0.0270797
v -0.2398055 -0.01008952 0.0270797
v -0.2836952 -0.09278727 -0.07505774
v -0.3132863 -0.06783414 0.06508875
v -0.3132863 -0.02208066 0.06508875
v -0.1451004 -0.0678339 0.2079499
v -0.1451004 -0.02208042 0.2079499
v 0.3132863 -0.01008916 0.04583669
v 0.3132863 -0.07982516 0.04583669
v 0.1900147 -0.01699686 0.1959651
v 0.1900147 -0.07291746 0.1959651
v -0.1801891 -0.05996656 0.2328877
v -0.303179 -0.03144872 0.1130456
v -0.303179 -0.05846584 0.1130456
v -0.1801891 -0.02994776 0.2328877
v 0.2272762 -0.0245738 0.2117712
v 0.3117288 -0.06554639 0.08813393
v 0.3117288 -0.02436793 0.08813393
v 0.2272762 -0.06534052 0.2117712
v -0.2245864 -0.03609431 0.2121292
v -0.2245864 -0.05382013 0.2121292
v 0.2609407 -0.05699337 0.1861167
v 0.2609407 -0.03292096 0.1861167
vn 0.1574034 -0.9863887 -0.04755569
vn -0.1009123 5.025834E-09 -0.9948953
vn 0 -1 0
vn 0.2142756 0.9591718 0.1845953
vn 0.2306083 7.301383E-09 -0.9730467
vn 0 0 1
vn -0.1304156 0.9914595 -2.353581E-08
vn 0.4355434 1.985517E-09 0.9001678
vn -0.1304146 -0.9914595 -2.564715E-08
vn -0.3371762 3.587936E-08 -0.9414415
vn -8.383721E-07 0.279222 -0.9602266
vn -0.3028992 -8.861558E-09 -0.9530227
vn -2.776814E-07 -0.6340857 -0.7732628
vn 0 0 -1
vn -0.5122554 1.003224E-08 0.8588333
vn 0.2406587 0.9651899 0.1024292
vn 0.3290293 1.64113E-08 -0.9443197
vn 0.2841257 -0.9587871 -1.705356E-07
vn -6.408872E-09 -0.6492675 0.7605602
vn -0.2466708 0.9535926 0.1726695
vn 7.759219E-09 0.9602283 -0.2792161
vn 0.0955317 0.905397 -0.4136787
vn -4.607819E-07 -0.8507623 0.5255507
vn -0.09553064 0.9053968 -0.4136793
vn 1.174759E-08 0.8716069 -0.4902056
vn 5.217206E-07 0.909557 -0.4155792
vn -0.8594002 0.5112932 0.003282185
vn 4.035638E-07 0.9491557 -0.3148069
vn 0.8594005 0.5112926 0.003282458
vn 2.228733E-09 -0.9933656 0.1149994
vn -0.8188264 0.56969 -0.07054473
vn 0.818827 0.5696893 -0.07054392
vn 0.7461792 0.6625198 -0.06545322
vn 0.8715311 0.4879647 -0.04820829
vn -0.7461788 0.6625203 -0.06545347
vn -0.8715307 0.4879654 -0.04820837
vn -0.8176625 0.5756915 -0.002742915
vn 1.345434E-08 0.9963698 -0.08513147
vn 0.8176633 0.5756902 -0.002744204
vn 9.083897E-09 0.1000752 0.9949799
vn 0.2731689 -0.9479004 0.1639013
vn 0.3029812 0.9267853 0.2219719
vn -0.3157137 -0.8967465 0.310114
vn -0.003551905 -0.6518134 -0.7583711
vn -0.2281964 0.960422 0.1597374
vn -0.04562376 0.509385 -0.8593285
vn -0.04578385 0.8520314 -0.5214849
vn -0.8367499 1.780383E-08 0.5475853
vn 0.2841239 0.9587876 -1.771305E-07
vn 0.2841258 -1.922555E-08 -0.958787
vn 1 0 0
vn -0.3371761 0.9414417 -6.488779E-09
vn 0.9471188 6.833068E-08 0.3208832
vn -0.3371734 -0.9414426 2.610328E-08
vn -1 0 0
vn 0.03607215 -0.9955922 0.08657315
vn 0.1530118 -0.04390714 -0.9872485
vn 0.3844704 -0.02832793 -0.9227026
vn -0.2565402 -0.06425967 -0.9643951
vn -0.2017726 -0.062065 -0.977464
vn -0.3637367 -0.9273067 0.08830688
vn -0.9784278 -1.371451E-07 -0.2065891
vn -0.3637393 0.927306 0.08830322
vn 0.8859048 -6.169928E-08 -0.4638671
vn 0.123467 0.9892386 0.07850483
vn 0.9759882 -3.152318E-08 -0.2178234
vn 0.335962 -0.9415176 0.02596518
vn -0.9479165 -3.604774E-08 -0.3185189
vn 0.09811639 0.8788304 0.4669372
vn 0.09812191 -0.8788274 0.4669417
vn 0.2076772 0.9779772 -0.02075495
vn 0.03215063 -0.9287072 0.3694173
vn -0.1199585 -0.9826828 0.141225
vn -0.9785039 6.066237E-08 0.2062286
vn -0.1199612 0.9826825 0.1412249
vn 0.5793039 -1.922466E-08 0.8151117
vn 0.133467 0.9789154 0.1546326
vn 0.9993228 -1.222022E-07 0.03679707
vn 0.1334679 -0.9789152 0.1546333
vn -0.3905129 -2.025666E-08 0.9205974
vn -0.240105 0.9419692 0.2346136
vn -0.4235518 -1.556641E-07 0.9058719
vn -0.2401058 -0.9419684 0.2346163
vn -0.7834632 -9.989961E-08 0.6214383
vn 0.4397109 -0.8459284 0.3017607
vn 0.6061241 -1.662907E-07 0.7953702
vn 0.4397109 0.8459284 0.3017608
vn 0.8878202 1.30836E-07 0.4601905
vn -0.1002025 0.9879494 0.1179636
vn -0.1001995 -0.9879498 0.1179633
vn 0.1266127 0.9880503 0.08789654
vn 0.3212792 -0.9467396 -0.02153951
vt 0.1340659 0.01093967
vt 0.1439256 0.01924048
vt 0.1312831 0.02591879
vt -0.1381533 0.06117331
vt -0.1567806 0.06238769
vt -0.143662 0.05602525
vt 0.1254535 -0.005515913
vt 0.1267988 -0.03148109
vt 0.1328529 -0.01452973
vt -0.07300912 -0.04299198
vt -0.08053159 -0.05250053
vt -0.07243843 -0.05122847
vt -0.1013739 0.1299305
vt -0.1191885 0.1299851
vt -0.1077461 0.1235618
vt 0.1220893 0.09570371
vt 0.1301391 0.07960401
vt 0.1462388 0.08765386
vt 0.138189 0.1037536
vt -0.1343816 -0.00841161
vt -0.1361421 -0.02284729
vt -0.1223297 -0.01817885
vt 0.1728663 0.03216982
vt 0.1565986 0.02446523
vt 0.1643256 0.01214525
vt 0.1775024 0.01838595
vt 0.1188011 -0.05323879
vt 0.106349 -0.06249043
vt 0.1199528 -0.06773575
vt -0.1565468 0.02835382
vt -0.1697377 0.03456499
vt -0.170637 0.02677002
vt -0.1619825 0.02269487
vt -0.1717274 0.1038401
vt -0.1753347 0.08428384
vt -0.1710248 0.09561381
vt -0.1493753 0.03723966
vt -0.1482649 0.04766502
vt -0.1601353 0.05325793
vt -0.0159946 0.05320631
vt -0.02309451 0.04766042
vt -0.0294304 0.03732605
vt -0.1253616 0.09461295
vt -0.1370983 0.1004813
vt -0.1425194 0.08963905
vt -0.1307827 0.08377071
vt 0.06675893 0.165338
vt 0.08122967 0.176043
vt 0.07084769 0.1842946
vt 0.06029852 0.1764906
vt -0.09463724 -0.06026711
vt -0.09381621 -0.04505385
vt -0.1057168 -0.05297895
vt -0.0915545 0.1423398
vt -0.08980568 0.1499449
vt -0.1010342 0.1567352
vt 0.1430227 0.04408263
vt 0.1557442 0.04653447
vt 0.1466451 0.04948643
vt 0.2068346 0.06203349
vt 0.2094768 0.04422848
vt 0.2130205 0.04722007
vt 0.2110943 0.06019993
vt -0.1129303 0.01809791
vt -0.1010861 0.01514617
vt -0.1066709 0.02338345
vt -0.1659375 0.002996458
vt -0.1679649 -0.00500699
vt -0.1653503 -0.01786587
vt -0.1837093 -0.004441406
vt -0.1926685 -0.007359708
vt -0.1855052 -0.006465624
vt 0.2046986 0.0201784
vt 0.2041601 0.007067457
vt 0.2119641 0.00900519
vt 0.2123174 0.01760728
vt -0.1845376 0.005097159
vt -0.1867553 0.006647855
vt -0.19393 0.005850359
vt -0.1916366 0.002789238
vt -0.1925032 0.01588259
vt -0.1944213 0.01397372
vt -0.1937895 0.004428669
vt -0.1867378 0.005107702
vt -0.1939076 0.004268451
vt -0.1927955 -0.005232617
vt -0.1856256 -0.004393368
vt -0.1790773 0.09976284
vt -0.1786453 0.1036533
vt -0.1874161 0.1037333
vt -0.1797268 -0.01513641
vt -0.1814359 -0.005724385
vt -0.189619 -0.00888204
vt -0.1884976 -0.01505728
vt 0.1054079 -0.1575418
vt 0.1016143 -0.1585068
vt 0.1066979 -0.1662176
vt 0.1594872 -0.01996898
vt 0.157034 -0.02822141
vt 0.1717699 -0.03138497
vt 0.1735583 -0.02536896
vt -0.1929681 0.09222404
vt -0.1923684 0.09028195
vt -0.1845393 0.08844835
vt 0.0384034 -0.1848392
vt 0.03911041 -0.192849
vt 0.04094807 -0.1937175
vt -0.02399647 -0.173183
vt -0.02311429 -0.177736
vt -0.01641235 -0.1700849
vt 0.1124561 -0.1488365
vt 0.1115929 -0.1589711
vt 0.1153311 -0.1578097
vt -0.1690456 0.08557038
vt -0.1788194 0.08275508
vt -0.175073 0.08002172
vt -0.186191 0.09767285
vt -0.1864873 0.09376965
vt -0.1768022 0.09687681
vt -0.1839835 0.09790611
vt -0.1845203 0.09986652
vt -0.1991137 0.09618542
vt -0.1987224 0.09475628
vt -0.1522812 -0.02794093
vt -0.1541575 -0.02195174
vt -0.1682425 -0.02725547
vt -0.1668747 -0.03162159
vt 0.05971838 -0.1821289
vt 0.05781491 -0.1814161
vt 0.05333791 -0.1958075
vt 0.05472554 -0.1963271
vt 0.1315338 0.09862654
vt 0.1344868 0.09308847
vt 0.1351574 0.09440981
vt 0.1330046 0.09844705
vt 0.1611384 0.04180176
vt 0.1567015 0.03538216
vt 0.1648307 0.02702054
vt -0.06133067 -0.0682717
vt -0.05434363 -0.05836305
vt -0.06205481 -0.05305352
vt 0.1638502 -0.05750749
vt 0.1538319 -0.06170683
vt 0.153708 -0.06924559
vt -0.02606432 0.03443617
vt -0.0270999 0.0240031
vt -0.01264057 0.05032662
vt -0.1016197 0.004643691
vt -0.1021087 0.0110942
vt -0.1139504 0.01405654
vt -0.1936496 0.08316039
vt -0.200374 0.05388954
vt -0.1948853 0.06331264
vt -0.1948611 0.01095787
vt -0.1913387 0.001649983
vt -0.1922819 0.03166848
vt -0.05455323 0.1985181
vt -0.04870848 0.2102665
vt -0.05612517 0.2130873
vt -0.06038599 0.2045227
vt -0.1100101 -0.054023
vt -0.1141464 -0.04900171
vt -0.1229111 -0.05283434
vt -0.1059634 0.1509091
vt -0.09462832 0.1442983
vt -0.09301151 0.1505997
vt -0.1012748 0.155419
vt 0.1918789 0.05491934
vt 0.199663 0.04935925
vt 0.2052231 0.05714338
vt 0.197439 0.06270348
vt -0.1332401 0.01673912
vt -0.1471195 0.01227357
vt -0.1424556 0.00596334
vt -0.1333494 0.00889319
vt 0.212091 -0.001134564
vt 0.2004749 -0.009946102
vt 0.2084227 -0.01413045
vt 0.2139786 -0.009915932
vt 0.1019784 -0.1042181
vt 0.08874321 -0.09810198
vt 0.08789998 -0.1059032
vt 0.09658358 -0.109916
vt -0.1918789 0.05491931
vt -0.197439 0.06270344
vt -0.2052231 0.05714335
vt -0.199663 0.04935922
vt 0.1392169 0.001282895
vt 0.1312808 -0.02768292
vt 0.1416965 -0.0245986
vt -0.1014219 0.1196269
vt -0.1185801 0.1279091
vt -0.1192365 0.119679
vt -0.08899327 0.1640811
vt -0.09666798 0.1587189
vt -0.0800959 0.1493186
vt -0.1396046 0.03960642
vt -0.1570953 0.04716135
vt -0.1582336 0.04079327
vt -0.1473067 0.06257694
vt -0.1541314 0.05407138
vt -0.1366532 0.04648766
vt 0.1190212 -0.1049056
vt 0.1140425 -0.1109705
vt 0.1259118 -0.1193677
vt -0.2046506 0.006047366
vt -0.2117637 0.01244364
vt -0.2194857 0.0001244424
vt -0.2160836 -0.002934867
vt -0.1302885 0.0141831
vt -0.134993 0.02046301
vt -0.1425188 0.006321019
vt 0.07466187 0.1935133
vt 0.07663466 0.1868246
vt 0.09587786 0.1937505
vt 0.09458351 0.1981389
vt -0.1209629 -0.02966546
vt -0.1216126 -0.02118603
vt -0.1338649 -0.02342101
vt 0.1788003 0.124603
vt 0.1763802 0.1153482
vt 0.1886921 0.1134686
vt 0.1904563 0.1202153
vt 0.1608803 0.05327837
vt 0.160958 0.04436608
vt 0.1733069 0.05244441
vt -0.1975641 -0.001656103
vt -0.2051766 0.004136741
vt -0.2149135 -0.01193992
vt -0.2104634 -0.01532631
vt -0.02569318 -0.03857911
vt -0.03186677 -0.04510309
vt -0.03162785 -0.05345904
vt 0.2041625 -0.01860622
vt 0.2008186 -0.01094482
vt 0.1924538 -0.007672878
vt -0.1454504 -0.03832656
vt -0.1405594 -0.04339578
vt -0.1328038 -0.04507329
vt 0.1881402 0.01824631
vt 0.1958513 0.02150441
vt 0.1997232 0.02738889
vt 0.1539121 -0.07426784
vt 0.1738136 -0.06631385
vt 0.1723748 -0.06218106
vt -0.1807625 0.1133127
vt -0.1820226 0.1177111
vt -0.1864761 0.1154608
vt -0.1857321 0.1128636
vt -0.1185519 -0.03514828
vt -0.1380263 -0.0247702
vt -0.1390878 -0.0290156
vt 0.1854814 -0.007562121
vt 0.1813716 -0.009572805
vt 0.1839701 -0.01309389
vt 0.1866665 -0.01177469
vt -0.1137344 -0.0293249
vt -0.1190396 -0.02469096
vt -0.1304848 -0.03953768
vt -0.1273835 -0.04224661
vt 0.2147651 0.04025185
vt 0.210451 0.03477285
vt 0.2146598 0.03327626
vt 0.2172072 0.03651156
vt 0.1807937 0.02557928
vt 0.1764044 0.0200699
vt 0.1921476 0.009802366
vt 0.1947134 0.01302306
vt 0.07933702 0.1695075
vt 0.08404684 0.1725222
vt 0.0812266 0.1755227
vt 0.0777931 0.1733249
vt -0.110043 -0.007880434
vt -0.1306338 -0.001934616
vt -0.1270892 -0.005374628
vt -0.1149305 -0.008885566
vt 0.09528344 0.1503964
vt 0.09278104 0.1487383
vt 0.09600051 0.1449922
vt 0.09747816 0.1459713
vt 0.1849888 -0.07532888
vt 0.1655052 -0.08425748
vt 0.1704876 -0.08452798
vt 0.1819925 -0.07925574
vt -0.004052807 0.1961256
vt -0.002528638 0.1983563
vt -0.0132329 0.2051075
vt -0.0142329 0.2036439
vt 0.2014308 0.06267956
vt 0.2160005 0.05088369
vt 0.2144262 0.05490028
vt 0.205823 0.06186563
vt 0.170599 0.01358191
vt 0.1742539 0.01538793
vt 0.1716304 0.01881269
vt 0.1694723 0.01774626
vt -0.05217428 -0.09810763
vt -0.04421056 -0.08113714
vt -0.0478076 -0.08378573
vt -0.05251009 -0.09380664
vt 0.1961508 -0.003525579
vt 0.1926877 -0.005753367
vt 0.1993777 -0.01457239
vt 0.2014022 -0.01327005
vt -0.121365 -0.03956931
vt -0.1204559 -0.03125953
vt -0.1407938 -0.02910613
vt 0.1693996 -0.0605482
vt 0.1492783 -0.064209
vt 0.1508032 -0.07242809
vt -0.1196858 -0.02173977
vt -0.1189872 -0.0302153
vt -0.1067724 -0.02278363
vt 0.1419431 0.04982834
vt 0.1546902 0.04335192
vt 0.1546676 0.05226451
o group677726637
g mesh677726637
usemtl mat23
f 3/3/1 2/2/1 1/1/1
f 6/6/2 5/5/2 4/4/2
f 1/9/3 8/8/3 7/7/3
f 11/12/4 10/11/4 9/10/4
f 13/15/5 12/14/5 7/13/5
f 10/19/6 14/18/6 8/17/6 1/16/6
f 5/22/7 15/21/7 14/20/7
f 15/26/8 16/25/8 8/24/8 14/23/8
f 16/29/9 6/28/9 8/27/9
f 18/33/10 17/32/10 5/31/10 6/30/10
f 12/36/11 19/35/11 9/34/11
f 19/39/12 20/38/12 4/37/12
f 20/42/13 13/41/13 7/40/13
f 20/46/14 19/45/14 12/44/14 13/43/14
f 2/50/15 21/49/15 10/48/15 1/47/15
f 21/53/16 22/52/16 10/51/16
f 22/56/17 3/55/17 7/54/17
f 24/59/18 23/58/18 3/57/18
f 26/63/19 25/62/19 14/61/19 10/60/19
f 28/66/20 27/65/20 14/64/20
f 28/69/21 11/68/21 9/67/21
f 30/72/22 29/71/22 11/70/22
f 32/76/23 31/75/23 25/74/23 26/73/23
f 34/79/24 33/78/24 28/77/24
f 33/83/25 30/82/25 11/81/25 28/80/25
f 33/87/26 34/86/26 29/85/26 30/84/26
f 35/90/27 34/89/27 25/88/27
f 35/94/28 36/93/28 29/92/28 34/91/28
f 36/97/29 26/96/29 29/95/29
f 38/101/30 37/100/30 31/99/30 32/98/30
f 25/104/31 31/103/31 35/102/31
f 36/107/32 32/106/32 26/105/32
f 11/110/33 26/109/33 10/108/33
f 29/113/34 26/112/34 11/111/34
f 14/116/35 25/115/35 28/114/35
f 28/119/36 25/118/36 34/117/36
f 37/123/37 39/122/37 35/121/37 31/120/37
f 39/127/38 40/126/38 36/125/38 35/124/38
f 40/131/39 38/130/39 32/129/39 36/128/39
f 40/135/40 39/134/40 37/133/40 38/132/40
f 1/138/41 7/137/41 3/136/41
f 22/141/42 9/140/42 10/139/42
f 6/144/43 4/143/43 8/142/43
f 7/147/44 4/146/44 20/145/44
f 14/150/45 27/149/45 5/148/45
f 19/153/46 27/152/46 9/151/46
f 9/156/47 27/155/47 28/154/47
f 42/160/48 41/159/48 21/158/48 2/157/48
f 44/163/49 43/162/49 22/161/49
f 43/167/50 24/166/50 3/165/50 22/164/50
f 43/171/51 44/170/51 23/169/51 24/168/51
f 17/175/52 45/174/52 15/173/52 5/172/52
f 47/179/53 46/178/53 16/177/53 15/176/53
f 48/183/54 18/182/54 6/181/54 16/180/54
f 48/187/55 45/186/55 17/185/55 18/184/55
f 8/190/56 4/189/56 7/188/56
f 12/193/57 9/192/57 7/191/57
f 7/196/58 9/195/58 22/194/58
f 5/199/59 27/198/59 4/197/59
f 4/202/60 27/201/60 19/200/60
f 49/205/61 48/204/61 16/203/61
f 49/209/62 50/208/62 45/207/62 48/206/62
f 50/212/63 15/211/63 45/210/63
f 52/216/64 51/215/64 46/214/64 47/213/64
f 53/219/65 44/218/65 21/217/65
f 53/223/66 54/222/66 23/221/66 44/220/66
f 54/226/67 2/225/67 23/224/67
f 56/230/68 55/229/68 41/228/68 42/227/68
f 50/233/69 47/232/69 15/231/69
f 16/236/70 46/235/70 49/234/70
f 21/239/71 41/238/71 53/237/71
f 54/242/72 42/241/72 2/240/72
f 51/245/73 57/244/73 49/243/73
f 59/249/74 58/248/74 50/247/74 49/246/74
f 60/252/75 52/251/75 50/250/75
f 60/256/76 57/255/76 51/254/76 52/253/76
f 55/260/77 61/259/77 53/258/77 41/257/77
f 63/264/78 62/263/78 54/262/78 53/261/78
f 64/268/79 56/267/79 42/266/79 54/265/79
f 64/272/80 61/271/80 55/270/80 56/269/80
f 58/276/81 65/275/81 60/274/81 50/273/81
f 65/280/82 66/279/82 57/278/82 60/277/82
f 66/284/83 59/283/83 49/282/83 57/281/83
f 66/288/84 65/287/84 58/286/84 59/285/84
f 62/292/85 67/291/85 64/290/85 54/289/85
f 67/296/86 68/295/86 61/294/86 64/293/86
f 68/300/87 63/299/87 53/298/87 61/297/87
f 68/304/88 67/303/88 62/302/88 63/301/88
f 52/307/89 47/306/89 50/305/89
f 49/310/90 46/309/90 51/308/90
f 22/313/91 21/312/91 44/311/91
f 23/316/92 2/315/92 3/314/92
