<?xml version="1.0" encoding="utf-8"?>
<!-- Generator: Adobe Illustrator 19.0.0, SVG Export Plug-In . SVG Version: 6.00 Build 0)  -->
<svg version="1.1" id="Layer_1" xmlns="http://www.w3.org/2000/svg" xmlns:xlink="http://www.w3.org/1999/xlink" x="0px" y="0px"
	 viewBox="0 0 69.8 70.2" style="enable-background:new 0 0 69.8 70.2;" xml:space="preserve">
<style type="text/css">
	.st0{fill:#666666;}
	.st1{fill:#D7D1C7;}
	.st2{fill:#BFB5AF;}
	.st3{fill:#F47E33;}
	.st4{fill:#35312E;}
	.st5{fill:#D8A780;}
</style>
<rect id="XMLID_66_" class="st0" width="69.8" height="70.2"/>
<g id="Page-1-Copy">
	<g id="Group-9" transform="translate(0.000000, 1.000000)">
		<path id="Fill-1" class="st1" d="M59.8,36.6c0.1-0.9,0.1-1.7,0.1-2.6C60,20.2,48.8,9,35,9S10,20.2,10,34
			C10,34.1,59.4,35.3,59.8,36.6"/>
		<path id="Fill-3" class="st2" d="M9.9,34.1c0,13.8,11.2,25,25,25s23.5-8.5,25-21.8C59.9,37.1,9.9,33.2,9.9,34.1"/>
		<path id="Fill-5" class="st3" d="M25.3,15.5c2.8,0,5,2.2,5,5s-2.2,5-5,5s-5-2.2-5-5S22.6,15.5,25.3,15.5"/>
		<path id="Fill-7" class="st4" d="M25.3,16.6c-2.2,0-4,1.8-4,4s1.8,4,4,4s4-1.8,4-4S27.5,16.6,25.3,16.6 M25.3,26.6
			c-3.3,0-6-2.7-6-6s2.7-6,6-6s6,2.7,6,6S28.6,26.6,25.3,26.6"/>
		<path id="Fill-9" class="st3" d="M41.6,15.3c4.3,0,7.8,3.5,7.8,7.8S45.9,31,41.6,31s-7.8-3.5-7.8-7.8S37.2,15.3,41.6,15.3"/>
		<polyline id="Fill-11" class="st2" points="27.5,39.9 33.9,31.9 35.2,32.6 37.8,33.6 39.7,32.6 45.6,26.4 47.6,29.1 48.6,28.3 
			49.9,28.3 53.2,32.9 55.5,32.5 59.8,37.3 		"/>
		<polyline id="Fill-13" class="st2" points="31.7,35.9 28.3,34 23.3,35.3 21,27.7 16.9,27.7 12.9,34.7 10,34.8 		"/>
		<path id="Fill-15" class="st3" d="M20.3,37.4c0,0-1.9,5.5-1.9,5.6c0,0.5,0.8,0.9,1.9,0.9c1,0,1.9-0.4,1.9-0.9
			C22.2,42.8,20.3,37.4,20.3,37.4"/>
		<path id="Fill-17" class="st3" d="M16,35.2c0,0-1.8,5.4-1.8,5.5c0,0.5,0.8,0.9,1.8,0.9s1.8-0.4,1.8-0.9C17.9,40.7,16,35.2,16,35.2
			"/>
		<path id="Fill-19" class="st5" d="M49.9,35.8c0,2.1-10,2.1-10,0c0-2.1,2.2-3.8,5-3.8S49.9,33.7,49.9,35.8"/>
		<path id="Fill-21" class="st5" d="M54.9,41c0,2.1-10,2.1-10,0s2.2-3.8,5-3.8C52.7,37.2,54.9,38.9,54.9,41"/>
		<path id="Fill-23" class="st5" d="M44.9,47.2c0,2.1-10,2.1-10,0s2.2-3.8,5-3.8C42.6,43.4,44.9,45.1,44.9,47.2"/>
		<path id="Fill-25" class="st1" d="M35.3,57.9c-10.3,0-19.2-6.5-22.7-15.6c0.7,0,1.4,0,2.2,0c0.4,0.1,0.8,0.2,1.2,0.2
			c0.4,0,0.7,0,1-0.1c0.2,0,0.3,0,0.5,0c-0.1,0.2-0.1,0.2-0.1,0.3c0,1.2,1.2,2,2.9,2c1.7,0,2.6-1,2.7-2.2c0.3,0,0.8,0.3,1.1,0.3
			c7,0.8,7.5,2,7.5,2.1c0,0.1-0.2,0.7-1.6,1.6c-3,2.1-4.1,3.3-3.8,4.6c0.3,1.6,2.4,2,5.4,2.5c0.9,0.2,1.8,0.4,2.9,0.6
			c1.1,0.3,2.3,0.5,3.4,0.7c2.1,0.4,4.2,0.8,5.9,1.4C41.2,57.4,38.3,57.9,35.3,57.9"/>
	</g>
	<path id="Fill-27" class="st4" d="M55.9,32.4l-2.2,0.4l-3.2-4.5h-1c0.7-1.2,1-2.7,1-4.1c0-4.9-4-8.9-8.9-8.9s-8.9,4-8.9,8.8
		c0,4.1,2.8,7.5,6.5,8.6L39,32.8l-1.3,0.6l-2.1-0.8l-2.1-1.2l-2.9,3.6l-2.3-1.3L24,35l-2.2-7.3h-5.5l-4,7l-1.2,0
		C11.2,21.6,21.9,11.1,35,11.1c13.2,0,23.9,10.7,23.9,23.9v0.8L55.9,32.4z M43.8,48.1c-0.4,0.3-1.7,0.7-4,0.7s-3.6-0.4-4-0.7
		c0.1-1.5,1.9-2.7,4-2.7C42,45.4,43.7,46.6,43.8,48.1L43.8,48.1z M49.9,39.2c2.1,0,3.8,1.2,4,2.7c-0.4,0.3-1.7,0.7-4,0.7
		c-2.2,0-3.6-0.4-4-0.7C46,40.4,47.8,39.2,49.9,39.2L49.9,39.2z M48.8,36.7c-0.4,0.3-1.7,0.7-4,0.7c-2.2,0-3.6-0.4-4-0.7
		c0.1-1.5,1.9-2.7,4-2.7C47,34,48.7,35.2,48.8,36.7L48.8,36.7z M47.2,27.9l-1.6-2.1l-4.8,5.2c-3.4-0.4-6.1-3.2-6.1-6.8
		c0-3.7,3-6.8,6.8-6.8s6.8,3,6.8,6.8C48.4,25.5,47.9,26.8,47.2,27.9L47.2,27.9z M46.1,56.2c-1.9-1-4.9-1.5-8-2.2
		c-1.1-0.2-2.2-0.4-3.3-0.7c-1-0.2-2-0.4-2.9-0.6c-1.4-0.3-3.1-0.6-3.6-0.9c0.2-0.3,0.8-1,2.8-2.3c0.7-0.5,2.9-2,2.3-3.9
		c-0.5-1.8-3.4-2.9-9.2-3.5c-0.5-0.1-1.1-0.1-1.6-0.2c-0.3-0.9-0.7-2.1-1.3-3.8l-1-2.9l-1,2.9c-0.3,1-0.6,1.7-0.8,2.4
		c-0.3-0.8-0.7-2.2-1.5-4.5L16,33l-1,2.9c-1.4,4-1.7,5.1-1.8,5.6H12c-0.4-1.5-0.7-3.1-0.8-4.7l2.4-0.1l4-6.9h2.7l2.4,7.8l5.6-1.4
		l1.3,0.7l-2.7,3.4l1.6,1.3l5.8-7.3l0.7,0.4l3.1,1.1l1.4-0.7c-0.3,0.5-0.4,1.1-0.4,1.8s0.4,2,3.4,2.4c0.9,0.2,1.6,1,1.6,1.9v3.4
		c-0.4-0.3-0.9-0.5-1.4-0.7h0c-1.1-0.4-2.2-0.9-2.5-2c-0.3,0.9-1,1.4-1.9,1.8c-2.4,0.7-4.2,2.5-4.2,4.6c0,0.8,0.6,2.6,6,2.6
		c5.5,0,6-1.8,6-2.6v-4.1c0.4,0.1,0.8,0.2,1.3,0.3c0.9,0.2,1.6,1,1.6,1.9v2.3c0,0.5,0.4,1,0.9,1.1c0.6,0.1,1.1-0.4,1.1-1v-2.4
		c0-1,0.7-1.8,1.6-1.9c3-0.5,3.4-1.8,3.4-2.4c0-1.7-1.1-3.2-2.8-4.1h0c0,0-0.1,0-0.1,0c-0.3-0.2-0.6-0.3-0.9-0.4
		c-0.5-0.2-0.9-0.5-1.2-0.9c-0.1-1.8-1.5-3.4-3.5-4.2h0c-0.1-0.1-0.3-0.1-0.4-0.1c-1-0.4-1.8-0.9-2.1-1.9c-0.3,1.1-1.2,1.6-2.4,2
		c-0.1,0-0.2,0.1-0.3,0.1l3.2-3.5l2,2.6l1.6-1.2h0.4l3.4,4.7l2.4-0.4l3.5,4C57.5,46.2,52.7,52.7,46.1,56.2L46.1,56.2z M19.6,43.7
		c0.2-0.5,0.4-1.2,0.7-2.1c0.3,0.9,0.5,1.6,0.7,2.1c-0.2,0.1-0.4,0.1-0.7,0.1C20,43.8,19.8,43.8,19.6,43.7L19.6,43.7z M15.3,41.5
		c0.2-0.5,0.4-1.2,0.7-2c0.3,0.8,0.5,1.6,0.7,2.1C16.2,41.6,15.8,41.5,15.3,41.5L15.3,41.5z M35,58.9c-10.2,0-18.9-6.4-22.3-15.3
		c0.7,0,1.4,0,2.1,0c0.4,0.1,0.8,0.2,1.2,0.2c0.3,0,0.7,0,1-0.1c0.2,0,0.3,0,0.5,0c-0.1,0.2-0.1,0.2-0.1,0.3c0,1.1,1.2,2,2.9,2
		c1.6,0,2.8-0.8,2.9-1.9c0.3,0,0.5,0.1,0.8,0.1c6.9,0.8,7.4,2,7.4,2.1c0,0.1-0.1,0.7-1.5,1.6c-2.9,2-4,3.2-3.7,4.5
		c0.3,1.5,2.3,1.9,5.4,2.5c0.9,0.2,1.8,0.3,2.8,0.6c1.1,0.2,2.3,0.5,3.4,0.7c2,0.4,4.1,0.8,5.8,1.3C40.8,58.4,38,58.9,35,58.9
		L35,58.9z M35,9C20.7,9,9,20.7,9,35s11.7,26,26,26s26-11.7,26-26S49.3,9,35,9L35,9z"/>
</g>
</svg>
